<svg width="195" height="58" viewBox="0 0 195 58" fill="none" xmlns="http://www.w3.org/2000/svg">
<g clip-path="url(#clip0_95_16864)">
<path d="M45.1603 0.5H10.0601C7.39067 0.502802 4.83151 1.5993 2.94509 3.5485C1.05867 5.49771 -0.00062757 8.14012 4.95479e-07 10.895V47.105C-0.000836346 49.8599 1.0584 52.5025 2.94486 54.4517C4.83132 56.401 7.3906 57.4973 10.0601 57.5H45.1603C47.8299 57.4973 50.3892 56.401 52.2759 54.4517C54.1625 52.5025 55.2219 49.86 55.2212 47.105V10.895C55.2219 8.13998 54.1625 5.49744 52.2759 3.54822C50.3892 1.59899 47.8299 0.502587 45.1603 0.5ZM36.636 14.7441C38.5936 14.7469 40.4703 15.5506 41.8546 16.979C43.2389 18.4074 44.0179 20.344 44.0208 22.3643C44.0225 23.6384 43.7114 24.8923 43.1161 26.0084C42.1944 25.2339 41.1453 24.6361 40.0192 24.2437C40.3181 23.6652 40.4753 23.02 40.477 22.3643C40.4842 21.839 40.3904 21.3175 40.2005 20.8301C40.0109 20.3426 39.7291 19.8989 39.3717 19.5248C39.0145 19.1508 38.5886 18.8536 38.119 18.6509C37.6495 18.4481 37.1454 18.3437 36.6365 18.3437C36.1275 18.3437 35.6236 18.4481 35.1538 18.6509C34.6843 18.8536 34.2586 19.1508 33.9012 19.5248C33.5438 19.8989 33.262 20.3426 33.0723 20.8301C32.8825 21.3175 32.7886 21.839 32.7959 22.3643C32.7916 23.0219 32.9496 23.67 33.2554 24.2469C32.1291 24.6393 31.0801 25.2371 30.1584 26.0118C29.5632 24.8955 29.2519 23.6416 29.2536 22.3675C29.2535 20.3465 30.031 18.408 31.4154 16.9784C32.7999 15.5489 34.6776 14.7452 36.636 14.7441ZM18.5844 43.2568C16.6269 43.2539 14.7503 42.4502 13.3661 41.0217C11.982 39.5933 11.2031 37.6567 11.2004 35.6366H14.7466C14.7466 36.1571 14.846 36.6726 15.039 37.1535C15.232 37.6343 15.5149 38.0714 15.8716 38.4394C16.2283 38.8074 16.6517 39.0993 17.1177 39.2987C17.5837 39.4978 18.0832 39.6004 18.5875 39.6004C19.0919 39.6004 19.5915 39.4978 20.0574 39.2987C20.5233 39.0993 20.9468 38.8074 21.3035 38.4394C21.6602 38.0714 21.943 37.6343 22.1361 37.1535C22.3291 36.6726 22.4284 36.1571 22.4284 35.6366H25.9747C25.9742 36.6376 25.7828 37.6289 25.4111 38.5537C25.0396 39.4784 24.4951 40.3186 23.8088 41.0261C23.1225 41.7338 22.308 42.2949 21.4115 42.6777C20.5152 43.0603 19.5545 43.2571 18.5844 43.2568ZM18.5844 32.5543C16.8777 32.5529 15.2099 32.0292 13.7916 31.0495C12.3734 30.0698 11.2685 28.6781 10.6166 27.0504C9.96479 25.4227 9.7953 23.6322 10.1296 21.9051C10.4638 20.178 11.2868 18.5918 12.4946 17.3475C13.7023 16.1031 15.2404 15.2562 16.9145 14.9139C18.5887 14.5716 20.3235 14.7493 21.8997 15.4245C23.4759 16.0998 24.8228 17.2422 25.7699 18.7072C26.7169 20.1725 27.2218 21.8944 27.2206 23.6557C27.2198 24.8253 26.9956 25.9831 26.5612 27.0632C26.1267 28.1434 25.4903 29.1247 24.6884 29.951C23.8865 30.7773 22.9346 31.4325 21.8873 31.8792C20.84 32.3259 19.7176 32.5552 18.5844 32.5543ZM36.636 43.2568C34.9286 43.258 33.2594 42.7366 31.8392 41.7586C30.4191 40.7805 29.312 39.3895 28.6581 37.762C28.0041 36.1343 27.8327 34.343 28.1654 32.6149C28.4981 30.8867 29.3202 29.2992 30.5275 28.0534C31.7348 26.8075 33.273 25.9591 34.9476 25.6156C36.6224 25.2722 38.3581 25.4493 39.9351 26.124C41.5124 26.7989 42.8601 27.9414 43.8079 29.407C44.7556 30.8726 45.2609 32.5953 45.2597 34.3573C45.2552 36.7162 44.3452 38.9771 42.729 40.6451C41.1127 42.3131 38.9218 43.2521 36.636 43.2568ZM41.7284 34.3573C41.7284 35.3966 41.4297 36.4127 40.8701 37.2769C40.3106 38.1412 39.5153 38.8147 38.5848 39.2124C37.6543 39.6102 36.6305 39.7144 35.6425 39.5115C34.6548 39.3088 33.7474 38.8083 33.0352 38.0733C32.3231 37.3384 31.8381 36.402 31.6416 35.3826C31.445 34.3632 31.546 33.3065 31.9313 32.3463C32.3168 31.386 32.9695 30.5652 33.807 29.9877C34.6444 29.4102 35.6289 29.1021 36.636 29.1021C37.3049 29.1017 37.9674 29.2373 38.5853 29.5012C39.2033 29.7652 39.7648 30.1523 40.2378 30.6404C40.7108 31.1284 41.0858 31.7079 41.3416 32.3457C41.5973 32.9834 41.7288 33.6671 41.7284 34.3573ZM23.6768 23.6557C23.6768 24.6951 23.3781 25.7111 22.8184 26.5754C22.259 27.4396 21.4636 28.1131 20.5332 28.5109C19.6027 28.9086 18.5787 29.0128 17.5909 28.8099C16.6031 28.6072 15.6957 28.1067 14.9836 27.3718C14.2714 26.6368 13.7864 25.7004 13.5899 24.681C13.3934 23.6616 13.4943 22.605 13.8797 21.6447C14.2651 20.6844 14.9178 19.8636 15.7552 19.2861C16.5927 18.7087 17.5773 18.4005 18.5844 18.4005C19.9343 18.4026 21.2284 18.957 22.1829 19.9422C23.1375 20.9272 23.6746 22.2626 23.6768 23.6557Z" fill="url(#paint0_linear_95_16864)"/>
<path d="M104.21 25.9597C103.186 25.5077 102.255 24.8559 101.468 24.0401C100.689 23.218 100.061 22.2565 99.6146 21.202C99.0571 19.8433 98.8341 18.3625 98.9658 16.8926C99.0974 15.4227 99.5794 14.0096 100.369 12.78C101.158 11.5505 102.23 10.5429 103.488 9.84758C104.746 9.15232 106.151 8.79114 107.578 8.79643C108.735 8.7976 109.88 9.03381 110.949 9.49168C111.965 9.9524 112.891 10.6026 113.68 11.4097C114.466 12.2181 115.089 13.1803 115.512 14.2402C115.968 15.3411 116.203 16.5265 116.203 17.7244C116.203 18.9224 115.968 20.1078 115.512 21.2086C115.078 22.2663 114.455 23.2296 113.675 24.0476C112.882 24.8554 111.953 25.5059 110.933 25.9672C109.864 26.419 108.719 26.6518 107.564 26.6525C106.412 26.6546 105.271 26.4191 104.208 25.9597H104.21ZM102.979 6.44815C100.137 7.68364 97.8769 10.0224 96.682 12.9629C96.073 14.4713 95.7595 16.0897 95.7595 17.7244C95.7595 19.3591 96.073 20.9776 96.682 22.486C97.877 25.4272 100.138 27.7668 102.98 29.0032C104.437 29.6343 106 29.9594 107.579 29.9594C109.159 29.9594 110.722 29.6343 112.179 29.0032C115.022 27.7683 117.283 25.428 118.477 22.486C119.085 20.9783 119.398 19.3608 119.398 17.727C119.398 16.0932 119.085 14.4756 118.477 12.968C117.28 10.026 115.018 7.68575 112.176 6.44815C110.718 5.82142 109.155 5.49878 107.577 5.49878C105.999 5.49878 104.437 5.82142 102.979 6.44815ZM77.8202 6.44062C76.4155 7.0627 75.1364 7.95261 74.0496 9.06395C72.9742 10.1844 72.1156 11.5072 71.5198 12.9612C70.9065 14.4696 70.5903 16.0896 70.5903 17.7261C70.5903 19.3627 70.9065 20.9826 71.5198 22.4909C72.116 23.9428 72.974 25.2638 74.048 26.3833C75.1316 27.4957 76.4084 28.3862 77.8112 29.0082C79.2701 29.6375 80.8351 29.9608 82.4154 29.9594C85.5468 29.9613 88.5516 28.679 90.7716 26.3933C91.8502 25.2688 92.7118 23.9419 93.3102 22.4835C93.4383 22.1664 93.5534 21.8385 93.6628 21.5013H90.2246C89.7971 22.443 89.2189 23.3032 88.5139 24.0451C87.7163 24.8814 86.7641 25.5431 85.7142 25.9906C84.6642 26.4382 83.538 26.6625 82.4025 26.65C81.2691 26.6544 80.146 26.4259 79.0987 25.9774C78.0514 25.529 77.1006 24.8696 76.3016 24.0374C75.5225 23.2152 74.8945 22.2528 74.4484 21.1978C73.5652 18.9669 73.5681 16.4655 74.4565 14.2368C75.1166 12.6184 76.2243 11.2381 77.6405 10.2697C79.0568 9.30137 80.7181 8.78818 82.4154 8.79475C83.573 8.79543 84.719 9.03344 85.7872 9.49503C86.8043 9.9567 87.7326 10.6048 88.5269 11.408C89.2347 12.1506 89.8123 13.015 90.2336 13.9626H93.6644C93.5615 13.6229 93.4416 13.2917 93.3144 12.9688C92.1151 10.0287 89.8551 7.68879 87.0149 6.44648C85.5579 5.81992 83.996 5.49675 82.4182 5.49545C80.8406 5.49415 79.278 5.81643 77.8202 6.44062ZM122.961 29.9594H126.154V5.49711H122.961V29.9594ZM162.391 14.1186C162.391 13.3521 162.537 12.593 162.821 11.8848C163.104 11.1766 163.52 10.5332 164.043 9.99113C164.567 9.44911 165.189 9.01915 165.873 8.7258C166.557 8.43246 167.291 8.28148 168.031 8.28148C168.772 8.28148 169.505 8.43246 170.19 8.7258C170.874 9.01915 171.496 9.44911 172.019 9.99113C172.543 10.5332 172.958 11.1766 173.241 11.8848C173.526 12.593 173.671 13.3521 173.671 14.1186C173.671 15.6667 173.077 17.1514 172.019 18.2461C170.961 19.3408 169.527 19.9557 168.031 19.9557C166.536 19.9557 165.101 19.3408 164.043 18.2461C162.986 17.1514 162.391 15.6667 162.391 14.1186ZM159.52 14.1656C159.52 18.94 163.329 22.6764 168.181 22.6764H170.108L166.343 30.0684H169.555L175.412 18.4479C176.142 17.1115 176.544 15.6103 176.584 14.0758C176.525 11.7666 175.595 9.57314 173.992 7.96553C172.389 6.35793 170.241 5.46421 168.009 5.47594C165.778 5.48768 163.639 6.40396 162.052 8.02833C160.465 9.65269 159.556 11.8559 159.52 14.1656ZM182.092 22.72C182.114 21.3841 182.644 20.111 183.566 19.1748C184.486 18.2387 185.725 17.7142 187.017 17.7142C188.308 17.7142 189.547 18.2387 190.468 19.1748C191.388 20.111 191.918 21.3841 191.942 22.72C191.942 24.0718 191.423 25.3684 190.499 26.3244C189.574 27.2804 188.323 27.8174 187.017 27.8174C185.711 27.8174 184.458 27.2804 183.533 26.3244C182.61 25.3684 182.092 24.0718 182.092 22.72ZM183.731 11.5263C183.731 10.6291 184.071 9.76765 184.677 9.12544C185.283 8.48323 186.106 8.11091 186.972 8.08776C187.854 8.08776 188.7 8.45029 189.324 9.0956C189.947 9.74093 190.298 10.6162 190.298 11.5288C190.298 12.4414 189.947 13.3167 189.324 13.962C188.7 14.6073 187.854 14.9698 186.972 14.9698C186.106 14.9465 185.283 14.5741 184.677 13.9319C184.071 13.2898 183.733 12.4285 183.731 11.5313V11.5263ZM181.079 11.5313C181.065 12.8643 181.471 14.1657 182.235 15.239L182.893 16.1473L182.054 16.8837C181.231 17.5984 180.57 18.4919 180.118 19.5006C179.666 20.5093 179.433 21.6087 179.438 22.7207C179.438 24.8014 180.235 26.7968 181.657 28.2679C183.079 29.7392 185.007 30.5657 187.017 30.5657C189.027 30.5657 190.955 29.7392 192.377 28.2679C193.799 26.7968 194.596 24.8014 194.596 22.7207C194.603 21.5966 194.367 20.4849 193.908 19.4666C193.447 18.4482 192.774 17.5485 191.935 16.8325L191.079 16.0886L191.768 15.1728C192.548 14.1301 192.965 12.8456 192.952 11.5271C192.926 9.91585 192.289 8.3796 191.179 7.24955C190.068 6.11953 188.574 5.48624 187.017 5.48624C185.461 5.48624 183.966 6.11953 182.855 7.24955C181.745 8.3796 181.108 9.91585 181.082 11.5271L181.079 11.5313ZM151.862 5.49711V24.4744C151.888 24.6988 151.869 24.9266 151.805 25.1427C151.741 25.3589 151.634 25.5588 151.49 25.7293C151.347 25.8999 151.171 26.0374 150.973 26.1331C150.775 26.2287 150.559 26.2802 150.341 26.2843C149.971 26.2629 149.613 26.1368 149.307 25.9193C149.001 25.7018 148.758 25.4017 148.606 25.0515L141.309 8.79894C140.929 7.81524 140.27 6.97351 139.419 6.38426C138.569 5.795 137.566 5.48576 136.542 5.49711C135.352 5.48316 134.195 5.8983 133.269 6.67125C133.226 6.70353 133.186 6.73824 133.147 6.77524C132.66 7.18842 132.269 7.70855 132.002 8.29784C131.734 8.88711 131.596 9.53073 131.599 10.1819V29.9594H134.983V10.6943C134.972 10.4747 135.005 10.255 135.078 10.0487C135.152 9.84247 135.266 9.6539 135.412 9.49453C135.559 9.33517 135.735 9.20834 135.93 9.12177C136.126 9.0352 136.336 8.99071 136.548 8.99099C136.92 9.0048 137.279 9.13143 137.582 9.35512C137.885 9.5788 138.117 9.88967 138.25 10.249L138.316 10.4092C140.03 14.3341 143.866 22.9648 146.112 27.5422C146.867 29.0796 148.157 29.7706 150.3 29.7816C151.511 29.804 152.692 29.3928 153.644 28.6174C154.169 28.2709 154.595 27.7843 154.877 27.2089C155.158 26.6334 155.285 25.9902 155.243 25.3466V5.49711H151.862Z" fill="url(#paint1_linear_95_16864)"/>
<path d="M76.4552 40.6289L73.6804 47.5651H77.5321C77.7529 47.5651 77.9186 47.6328 78.029 47.7681C78.1395 47.8964 78.1947 48.0531 78.1947 48.2384C78.1947 48.4236 78.1395 48.5804 78.029 48.7086C77.9186 48.8369 77.7529 48.901 77.5321 48.901H73.1523L71.8788 52.0859C71.7614 52.378 71.582 52.5241 71.3404 52.5241C71.2437 52.5241 71.1367 52.4991 71.0194 52.4493C70.6121 52.2711 70.4948 51.9755 70.6674 51.5622L75.7201 39.0258C75.8789 38.6766 76.1239 38.5021 76.4552 38.5021H76.507C76.8452 38.5092 77.0799 38.6838 77.2111 39.0258L82.3052 51.5622C82.4847 51.9826 82.3674 52.2783 81.9532 52.4493C81.8428 52.492 81.7358 52.5134 81.6322 52.5134C81.3975 52.5134 81.225 52.3709 81.1145 52.0859L76.4552 40.6289Z" fill="black"/>
<path d="M95.6999 43.7069V47.3086C95.6999 48.2063 95.5998 48.983 95.3996 49.6385C95.2063 50.294 94.9026 50.8355 94.4884 51.263C94.0812 51.6905 93.56 52.0075 92.925 52.2141C92.2968 52.4136 91.5445 52.5134 90.6678 52.5134H85.6772C85.4977 52.5134 85.3424 52.4493 85.2113 52.321C85.087 52.1856 85.0249 52.0253 85.0249 51.8401V41.8686C85.0249 41.6834 85.087 41.5266 85.2113 41.3984C85.3424 41.263 85.4977 41.1953 85.6772 41.1953C85.8567 41.1953 86.0085 41.263 86.1328 41.3984C86.2639 41.5266 86.3295 41.6834 86.3295 41.8686V51.1668H90.6678C91.3788 51.1668 91.9724 51.0955 92.4487 50.953C92.925 50.8034 93.3081 50.5754 93.598 50.269C93.8879 49.9555 94.095 49.5565 94.2192 49.072C94.3435 48.5804 94.4056 47.9926 94.4056 47.3086V43.7069C94.4056 42.973 94.3331 42.3603 94.1882 41.8686C94.0501 41.3699 93.8292 40.9709 93.5255 40.6716C93.2287 40.3724 92.8421 40.1622 92.3659 40.0411C91.8965 39.9128 91.3305 39.8487 90.6678 39.8487H85.6772C85.4977 39.8487 85.3424 39.7953 85.2113 39.6884C85.087 39.5744 85.0249 39.4034 85.0249 39.1754C85.0249 38.7265 85.2423 38.5021 85.6772 38.5021H90.6678C91.5445 38.5021 92.2968 38.6054 92.925 38.812C93.56 39.0115 94.0812 39.325 94.4884 39.7525C94.9026 40.18 95.2063 40.7215 95.3996 41.377C95.5998 42.0325 95.6999 42.8091 95.6999 43.7069Z" fill="black"/>
<path d="M100.035 52.5134C99.6005 52.5134 99.3831 52.289 99.3831 51.8401V39.1754C99.3831 38.7265 99.6005 38.5021 100.035 38.5021C100.339 38.5021 100.584 38.6481 100.77 38.9403L105.699 46.6887L110.627 38.9403C110.807 38.6481 111.069 38.5021 111.414 38.5021C111.787 38.5021 111.973 38.7265 111.973 39.1754V51.8401C111.973 52.289 111.756 52.5134 111.321 52.5134C110.886 52.5134 110.669 52.289 110.669 51.8401V41.2701L106.424 47.875C106.237 48.1671 105.975 48.3132 105.637 48.3132C105.368 48.3132 105.14 48.1671 104.953 47.875L100.688 41.2381V51.8401C100.688 52.289 100.47 52.5134 100.035 52.5134Z" fill="black"/>
<path d="M116.638 52.5134C116.431 52.5134 116.269 52.4564 116.151 52.3424C116.041 52.2213 115.986 52.0538 115.986 51.8401V39.1754C115.986 38.9545 116.041 38.7871 116.151 38.6731C116.269 38.5591 116.431 38.5021 116.638 38.5021C116.852 38.5021 117.014 38.5591 117.125 38.6731C117.235 38.7871 117.29 38.9545 117.29 39.1754V51.8401C117.29 52.0538 117.235 52.2213 117.125 52.3424C117.014 52.4564 116.852 52.5134 116.638 52.5134Z" fill="black"/>
<path d="M121.957 52.5134C121.522 52.5134 121.304 52.289 121.304 51.8401V39.1754C121.304 38.7265 121.522 38.5021 121.957 38.5021C122.185 38.5021 122.405 38.6339 122.619 38.8975L130.934 49.927V39.1754C130.934 38.7265 131.151 38.5021 131.586 38.5021C132.021 38.5021 132.238 38.7265 132.238 39.1754V51.8401C132.238 52.289 132.021 52.5134 131.586 52.5134C131.351 52.5134 131.13 52.3816 130.923 52.118L122.609 41.0885V51.8401C122.609 52.289 122.392 52.5134 121.957 52.5134Z" fill="black"/>
</g>
<defs>
<linearGradient id="paint0_linear_95_16864" x1="56.1495" y1="9.13429" x2="-2.03891" y2="47.1664" gradientUnits="userSpaceOnUse">
<stop stop-color="#F1D961"/>
<stop offset="1" stop-color="#CDA146"/>
</linearGradient>
<linearGradient id="paint1_linear_95_16864" x1="132.594" y1="30.5598" x2="132.594" y2="5.46944" gradientUnits="userSpaceOnUse">
<stop stop-color="#CDA146"/>
<stop offset="1" stop-color="#F1D961"/>
</linearGradient>
<clipPath id="clip0_95_16864">
<rect width="195" height="57" fill="black" transform="translate(0 0.5)"/>
</clipPath>
</defs>
</svg>
